<?xml version="1.0" standalone="no"?>
<!DOCTYPE svg PUBLIC "-//W3C//DTD SVG 20010904//EN"
 "http://www.w3.org/TR/2001/REC-SVG-20010904/DTD/svg10.dtd">
<svg version="1.0" xmlns="http://www.w3.org/2000/svg"
 width="168.000000pt" height="168.000000pt" viewBox="0 0 168.000000 168.000000"
 preserveAspectRatio="xMidYMid meet">
<metadata>
Created by potrace 1.14, written by Peter Selinger 2001-2017
</metadata>
<g transform="translate(0.000000,168.000000) scale(0.100000,-0.100000)"
fill="#000000" stroke="none">
<path d="M357 1583 c-4 -3 -47 -6 -97 -5 -98 0 -110 -7 -103 -58 4 -28 4 -34
0 -92 -1 -24 0 -47 2 -53 8 -15 8 -45 1 -45 -8 0 -4 -55 5 -69 3 -6 2 -11 -2
-11 -9 0 -9 -123 0 -137 3 -5 2 -15 -3 -23 -5 -8 -5 -21 1 -31 6 -11 5 -20 -1
-24 -6 -3 -6 -15 0 -30 6 -15 6 -27 0 -30 -5 -3 -7 -12 -4 -20 8 -20 10 -125
3 -125 -4 0 -3 -18 1 -40 4 -22 3 -43 -1 -46 -5 -3 -7 -9 -4 -13 2 -5 7 -31
10 -59 12 -119 70 -222 171 -302 20 -16 78 -44 80 -38 0 1 7 -2 15 -9 8 -6 26
-14 39 -17 14 -3 36 -8 50 -11 14 -3 181 -6 373 -7 191 0 347 -4 347 -9 0 -5
4 -9 9 -9 5 0 48 -40 97 -90 49 -49 93 -90 99 -90 7 0 9 90 8 268 -1 147 -3
479 -3 739 -1 437 -2 472 -18 477 -9 2 -97 5 -195 5 -98 0 -182 3 -186 6 -25
15 -29 -39 -30 -438 0 -230 -3 -422 -5 -426 -3 -5 -24 -5 -46 -1 -22 4 -40 4
-40 1 0 -9 -54 -6 -69 4 -6 3 -11 2 -11 -2 0 -10 -41 -10 -57 0 -5 4 -13 4
-17 0 -9 -10 -56 -10 -56 0 0 4 -8 4 -17 -1 -19 -9 -100 -8 -109 1 -3 3 -6
195 -6 427 -1 385 -3 422 -18 430 -10 5 -20 7 -23 4 -7 -8 -163 -7 -175 0 -5
3 -12 3 -15 -1z"/>
</g>
</svg>
